<svg width="416" height="44" viewBox="0 0 416 44" fill="none" xmlns="http://www.w3.org/2000/svg">
<path d="M12.4396 19.84H6.19956V34H0.0555627V0.399998H6.19956V14.464H12.6316L22.2796 0.399998H28.9036L17.4316 16.672L29.3356 34H22.2796L12.4396 19.84ZM42.7793 8.08C46.5553 8.08 49.4353 8.992 51.4193 10.816C53.4353 12.608 54.4433 15.328 54.4433 18.976V34H48.7793V30.88C48.0433 32 46.9873 32.864 45.6113 33.472C44.2673 34.048 42.6353 34.336 40.7153 34.336C38.7953 34.336 37.1153 34.016 35.6753 33.376C34.2353 32.704 33.1153 31.792 32.3153 30.64C31.5473 29.456 31.1633 28.128 31.1633 26.656C31.1633 24.352 32.0113 22.512 33.7073 21.136C35.4353 19.728 38.1393 19.024 41.8193 19.024H48.4433V18.64C48.4433 16.848 47.8993 15.472 46.8113 14.512C45.7553 13.552 44.1713 13.072 42.0593 13.072C40.6193 13.072 39.1953 13.296 37.7873 13.744C36.4113 14.192 35.2433 14.816 34.2833 15.616L31.9313 11.248C33.2753 10.224 34.8913 9.44 36.7793 8.896C38.6673 8.352 40.6673 8.08 42.7793 8.08ZM41.9633 29.968C43.4673 29.968 44.7953 29.632 45.9473 28.96C47.1313 28.256 47.9633 27.264 48.4433 25.984V23.008H42.2513C38.7953 23.008 37.0673 24.144 37.0673 26.416C37.0673 27.504 37.4993 28.368 38.3633 29.008C39.2273 29.648 40.4273 29.968 41.9633 29.968ZM82.1719 13.456H73.1959V34H67.1959V13.456H58.1719V8.368H82.1719V13.456ZM96.0762 8.08C99.8522 8.08 102.732 8.992 104.716 10.816C106.732 12.608 107.74 15.328 107.74 18.976V34H102.076V30.88C101.34 32 100.284 32.864 98.9082 33.472C97.5642 34.048 95.9322 34.336 94.0122 34.336C92.0922 34.336 90.4122 34.016 88.9722 33.376C87.5322 32.704 86.4122 31.792 85.6122 30.64C84.8442 29.456 84.4602 28.128 84.4602 26.656C84.4602 24.352 85.3082 22.512 87.0042 21.136C88.7322 19.728 91.4362 19.024 95.1162 19.024H101.74V18.64C101.74 16.848 101.196 15.472 100.108 14.512C99.0522 13.552 97.4682 13.072 95.3562 13.072C93.9162 13.072 92.4922 13.296 91.0842 13.744C89.7082 14.192 88.5402 14.816 87.5802 15.616L85.2282 11.248C86.5722 10.224 88.1882 9.44 90.0762 8.896C91.9642 8.352 93.9642 8.08 96.0762 8.08ZM95.2602 29.968C96.7642 29.968 98.0922 29.632 99.2442 28.96C100.428 28.256 101.26 27.264 101.74 25.984V23.008H95.5482C92.0922 23.008 90.3642 24.144 90.3642 26.416C90.3642 27.504 90.7962 28.368 91.6602 29.008C92.5242 29.648 93.7242 29.968 95.2602 29.968ZM138.397 8.368V34H132.397V13.456H122.797L122.557 18.544C122.397 21.936 122.077 24.784 121.597 27.088C121.149 29.36 120.365 31.168 119.245 32.512C118.157 33.824 116.653 34.48 114.733 34.48C113.837 34.48 112.733 34.304 111.421 33.952L111.709 28.912C112.157 29.008 112.541 29.056 112.861 29.056C114.077 29.056 114.989 28.576 115.597 27.616C116.205 26.624 116.589 25.456 116.749 24.112C116.941 22.736 117.101 20.784 117.229 18.256L117.661 8.368H138.397ZM157.901 34.336C155.309 34.336 152.973 33.776 150.893 32.656C148.813 31.536 147.181 29.984 145.997 28C144.845 25.984 144.269 23.712 144.269 21.184C144.269 18.656 144.845 16.4 145.997 14.416C147.181 12.432 148.813 10.88 150.893 9.76C152.973 8.64 155.309 8.08 157.901 8.08C160.525 8.08 162.877 8.64 164.957 9.76C167.037 10.88 168.653 12.432 169.805 14.416C170.989 16.4 171.581 18.656 171.581 21.184C171.581 23.712 170.989 25.984 169.805 28C168.653 29.984 167.037 31.536 164.957 32.656C162.877 33.776 160.525 34.336 157.901 34.336ZM157.901 29.2C160.109 29.2 161.933 28.464 163.373 26.992C164.813 25.52 165.533 23.584 165.533 21.184C165.533 18.784 164.813 16.848 163.373 15.376C161.933 13.904 160.109 13.168 157.901 13.168C155.693 13.168 153.869 13.904 152.429 15.376C151.021 16.848 150.317 18.784 150.317 21.184C150.317 23.584 151.021 25.52 152.429 26.992C153.869 28.464 155.693 29.2 157.901 29.2ZM197.189 13.456H183.509V34H177.509V8.368H197.189V13.456ZM235.125 13.456H226.149V34H220.149V13.456H211.125V8.368H235.125V13.456ZM249.776 34.336C247.184 34.336 244.848 33.776 242.768 32.656C240.688 31.536 239.056 29.984 237.872 28C236.72 25.984 236.144 23.712 236.144 21.184C236.144 18.656 236.72 16.4 237.872 14.416C239.056 12.432 240.688 10.88 242.768 9.76C244.848 8.64 247.184 8.08 249.776 8.08C252.4 8.08 254.752 8.64 256.832 9.76C258.912 10.88 260.528 12.432 261.68 14.416C262.864 16.4 263.456 18.656 263.456 21.184C263.456 23.712 262.864 25.984 261.68 28C260.528 29.984 258.912 31.536 256.832 32.656C254.752 33.776 252.4 34.336 249.776 34.336ZM249.776 29.2C251.984 29.2 253.808 28.464 255.248 26.992C256.688 25.52 257.408 23.584 257.408 21.184C257.408 18.784 256.688 16.848 255.248 15.376C253.808 13.904 251.984 13.168 249.776 13.168C247.568 13.168 245.744 13.904 244.304 15.376C242.896 16.848 242.192 18.784 242.192 21.184C242.192 23.584 242.896 25.52 244.304 26.992C245.744 28.464 247.568 29.2 249.776 29.2ZM287.96 20.656C291.128 21.616 292.712 23.664 292.712 26.8C292.712 29.104 291.848 30.88 290.12 32.128C288.392 33.376 285.832 34 282.44 34H269.384V8.368H281.912C285.048 8.368 287.496 8.944 289.256 10.096C291.016 11.248 291.896 12.88 291.896 14.992C291.896 16.304 291.544 17.44 290.84 18.4C290.168 19.36 289.208 20.112 287.96 20.656ZM275.096 19.072H281.384C284.488 19.072 286.04 18 286.04 15.856C286.04 13.776 284.488 12.736 281.384 12.736H275.096V19.072ZM281.96 29.632C285.256 29.632 286.904 28.56 286.904 26.416C286.904 25.296 286.52 24.464 285.752 23.92C284.984 23.344 283.784 23.056 282.152 23.056H275.096V29.632H281.96ZM308.654 8.08C312.43 8.08 315.31 8.992 317.294 10.816C319.31 12.608 320.318 15.328 320.318 18.976V34H314.654V30.88C313.918 32 312.862 32.864 311.486 33.472C310.142 34.048 308.51 34.336 306.59 34.336C304.67 34.336 302.99 34.016 301.55 33.376C300.11 32.704 298.99 31.792 298.19 30.64C297.422 29.456 297.038 28.128 297.038 26.656C297.038 24.352 297.886 22.512 299.582 21.136C301.31 19.728 304.014 19.024 307.694 19.024H314.318V18.64C314.318 16.848 313.774 15.472 312.686 14.512C311.63 13.552 310.046 13.072 307.934 13.072C306.494 13.072 305.07 13.296 303.662 13.744C302.286 14.192 301.118 14.816 300.158 15.616L297.806 11.248C299.15 10.224 300.766 9.44 302.654 8.896C304.542 8.352 306.542 8.08 308.654 8.08ZM307.838 29.968C309.342 29.968 310.67 29.632 311.822 28.96C313.006 28.256 313.838 27.264 314.318 25.984V23.008H308.126C304.67 23.008 302.942 24.144 302.942 26.416C302.942 27.504 303.374 28.368 304.238 29.008C305.102 29.648 306.302 29.968 307.838 29.968ZM341.951 8.08C344.447 8.08 346.671 8.624 348.623 9.712C350.607 10.8 352.159 12.336 353.279 14.32C354.399 16.304 354.959 18.592 354.959 21.184C354.959 23.776 354.399 26.08 353.279 28.096C352.159 30.08 350.607 31.616 348.623 32.704C346.671 33.792 344.447 34.336 341.951 34.336C338.495 34.336 335.759 33.184 333.743 30.88V43.312H327.743V8.368H333.455V11.728C334.447 10.512 335.663 9.6 337.103 8.992C338.575 8.384 340.191 8.08 341.951 8.08ZM341.279 29.2C343.487 29.2 345.295 28.464 346.703 26.992C348.143 25.52 348.863 23.584 348.863 21.184C348.863 18.784 348.143 16.848 346.703 15.376C345.295 13.904 343.487 13.168 341.279 13.168C339.839 13.168 338.543 13.504 337.391 14.176C336.239 14.816 335.327 15.744 334.655 16.96C333.983 18.176 333.647 19.584 333.647 21.184C333.647 22.784 333.983 24.192 334.655 25.408C335.327 26.624 336.239 27.568 337.391 28.24C338.543 28.88 339.839 29.2 341.279 29.2ZM372.354 34.336C369.762 34.336 367.426 33.776 365.346 32.656C363.266 31.536 361.634 29.984 360.45 28C359.298 25.984 358.722 23.712 358.722 21.184C358.722 18.656 359.298 16.4 360.45 14.416C361.634 12.432 363.266 10.88 365.346 9.76C367.426 8.64 369.762 8.08 372.354 8.08C374.978 8.08 377.33 8.64 379.41 9.76C381.49 10.88 383.106 12.432 384.258 14.416C385.442 16.4 386.034 18.656 386.034 21.184C386.034 23.712 385.442 25.984 384.258 28C383.106 29.984 381.49 31.536 379.41 32.656C377.33 33.776 374.978 34.336 372.354 34.336ZM372.354 29.2C374.562 29.2 376.386 28.464 377.826 26.992C379.266 25.52 379.986 23.584 379.986 21.184C379.986 18.784 379.266 16.848 377.826 15.376C376.386 13.904 374.562 13.168 372.354 13.168C370.146 13.168 368.322 13.904 366.882 15.376C365.474 16.848 364.77 18.784 364.77 21.184C364.77 23.584 365.474 25.52 366.882 26.992C368.322 28.464 370.146 29.2 372.354 29.2ZM410.538 20.656C413.706 21.616 415.29 23.664 415.29 26.8C415.29 29.104 414.426 30.88 412.698 32.128C410.97 33.376 408.41 34 405.018 34H391.962V8.368H404.49C407.626 8.368 410.074 8.944 411.834 10.096C413.594 11.248 414.474 12.88 414.474 14.992C414.474 16.304 414.122 17.44 413.418 18.4C412.746 19.36 411.786 20.112 410.538 20.656ZM397.674 19.072H403.962C407.066 19.072 408.618 18 408.618 15.856C408.618 13.776 407.066 12.736 403.962 12.736H397.674V19.072ZM404.538 29.632C407.834 29.632 409.482 28.56 409.482 26.416C409.482 25.296 409.098 24.464 408.33 23.92C407.562 23.344 406.362 23.056 404.73 23.056H397.674V29.632H404.538Z" fill="black"/>
</svg>
